# WaveFront *.obj file (generated by Cinema 4D)

v -0.750000 0.541196 -0.541196
v 0.750000 0.541196 -0.541196
v 0.750000 0.617317 -0.923880
v -0.750000 0.617317 -0.923880
v 0.750000 0.541196 -1.306563
v -0.750000 0.541196 -1.306563
v 0.750000 0.324423 -1.630986
v -0.750000 0.324423 -1.630986
v 0.750000 0.000000 0.000000
v -0.750000 -0.000000 0.000000
v -0.750000 0.324423 -0.216773
v 0.750000 0.324423 -0.216773
# 12 vertices

vn -0.000000 0.555562 0.831469
vn -0.000000 0.707094 0.707094
vn -0.000000 0.999969 0.000000
vn -0.000000 0.923875 -0.382656
vn -0.000000 0.923875 0.382656
vn -0.000000 0.831469 -0.555562
# 6 normals

vt 0.000000 0.000748 0.000000
vt 0.998736 0.000000 0.000000
vt 0.998989 0.199850 0.000000
vt 0.000253 0.200598 0.000000
vt 0.000759 0.600299 0.000000
vt 0.999494 0.599551 0.000000
vt 0.999747 0.799402 0.000000
vt 0.001012 0.800150 0.000000
vt 0.999241 0.399701 0.000000
vt 0.000506 0.400449 0.000000
vt 1.000000 0.999252 0.000000
vt 0.001265 1.000000 0.000000
# 12 texture coordinates

o Cylinder
usemtl default
f 12/4/2 11/3/2 10/2/1 9/1/1
f 5/8/4 6/7/4 4/6/3 3/5/3
f 2/10/5 1/9/5 11/3/2 12/4/2
f 3/5/3 4/6/3 1/9/5 2/10/5
f 7/12/6 8/11/6 6/7/4 5/8/4

